<?xml version="1.0" encoding="utf-8"?>
<!-- Generator: Adobe Illustrator 22.1.0, SVG Export Plug-In . SVG Version: 6.00 Build 0)  -->
<svg version="1.1" id="Capa_1" xmlns="http://www.w3.org/2000/svg" xmlns:xlink="http://www.w3.org/1999/xlink" x="0px" y="0px"
	 viewBox="0 0 35 35" style="enable-background:new 0 0 35 35;" xml:space="preserve">
<style type="text/css">
	.st0{display:none;}
	.st1{display:inline;}
	.st2{fill:#003753;}
	.st3{display:none;fill:#003753;}
	.st4{display:inline;fill:#003753;}
	.st5{fill:#FFFFFF;}
</style>
<g class="st0">
	<g class="st1">
		<g>
			<path class="st2" d="M21.8,13.2c-1.1-1.1-2.6-1.8-4.3-1.8s-3.2,0.7-4.3,1.8s-1.8,2.6-1.8,4.3s0.7,3.2,1.8,4.3
				c1.1,1.1,2.6,1.8,4.3,1.8s3.2-0.7,4.3-1.8c1.1-1.1,1.8-2.6,1.8-4.3C23.5,15.8,22.9,14.3,21.8,13.2z M20.6,20.6
				c-0.8,0.8-1.9,1.3-3.1,1.3s-2.3-0.5-3.1-1.3s-1.3-1.9-1.3-3.1s0.5-2.3,1.3-3.1s1.9-1.3,3.1-1.3s2.3,0.5,3.1,1.3
				c0.8,0.8,1.3,1.9,1.3,3.1S21.4,19.8,20.6,20.6z"/>
		</g>
	</g>
	<g class="st1">
		<g>
			<path class="st2" d="M28.7,16.7h-2.4c-0.4,0-0.8,0.4-0.8,0.8s0.4,0.8,0.8,0.8h2.4c0.4,0,0.8-0.4,0.8-0.8S29.1,16.7,28.7,16.7z"/>
		</g>
	</g>
	<g class="st1">
		<g>
			<path class="st2" d="M17.5,25.4c-0.4,0-0.8,0.4-0.8,0.8v2.4c0,0.4,0.4,0.8,0.8,0.8s0.8-0.4,0.8-0.8v-2.4
				C18.3,25.8,17.9,25.4,17.5,25.4z"/>
		</g>
	</g>
	<g class="st1">
		<g>
			<path class="st2" d="M26,24.8l-1.7-1.7c-0.3-0.3-0.8-0.3-1.1,0c-0.3,0.3-0.3,0.8,0,1.1l1.7,1.7c0.3,0.3,0.8,0.3,1.1,0
				C26.3,25.7,26.3,25.2,26,24.8z"/>
		</g>
	</g>
	<g class="st1">
		<g>
			<path class="st2" d="M17.5,5.5c-0.4,0-0.8,0.4-0.8,0.8v2.4c0,0.4,0.4,0.8,0.8,0.8s0.8-0.4,0.8-0.8V6.3
				C18.3,5.9,17.9,5.5,17.5,5.5z"/>
		</g>
	</g>
	<g class="st1">
		<g>
			<path class="st2" d="M26,9c-0.3-0.3-0.8-0.3-1.1,0l-1.7,1.7c-0.3,0.3-0.3,0.8,0,1.1s0.8,0.3,1.1,0l1.7-1.7
				C26.3,9.8,26.3,9.3,26,9z"/>
		</g>
	</g>
	<g class="st1">
		<g>
			<path class="st2" d="M8.8,16.7H6.3c-0.4,0-0.8,0.4-0.8,0.8s0.3,0.8,0.8,0.8h2.4c0.4,0,0.8-0.4,0.8-0.8S9.2,16.7,8.8,16.7z"/>
		</g>
	</g>
	<g class="st1">
		<g>
			<path class="st2" d="M11.9,23.1c-0.3-0.3-0.8-0.3-1.1,0L9,24.8c-0.3,0.3-0.3,0.8,0,1.1c0.3,0.3,0.8,0.3,1.1,0l1.7-1.7
				C12.2,23.9,12.2,23.4,11.9,23.1z"/>
		</g>
	</g>
	<g class="st1">
		<g>
			<path class="st2" d="M11.9,10.8L10.1,9C9.8,8.7,9.3,8.7,9,9s-0.3,0.8,0,1.1l1.7,1.7c0.3,0.3,0.8,0.3,1.1,0S12.2,11.1,11.9,10.8z"
				/>
		</g>
	</g>
</g>
<g class="st0">
	<g class="st1">
		<path class="st2" d="M28.7,12.7c-1.1-1-2.7-1.7-4.3-1.7c-0.2,0-0.4,0-0.6,0c-0.6-1.3-1.5-2.3-2.6-3.1c-1.3-0.9-2.8-1.4-4.4-1.4
			c-1.9,0-3.7,0.7-5,1.8c-1.2,1-2.1,2.5-2.5,4.1C8.1,12.6,7,13.2,6.1,14c-1,1-1.6,2.3-1.6,3.8s0.6,2.8,1.6,3.8s2.3,1.6,3.8,1.6h5.3
			l-1.7,4.4c-0.1,0.4,0,0.8,0.4,0.9c0.3,0.1,0.6,0,0.8-0.2l4.4-5.1h5.2c1.7,0,3.2-0.7,4.3-1.8c1.1-1.1,1.8-2.6,1.8-4.3
			S29.7,13.8,28.7,12.7z M18.4,21.9C18.3,21.9,18.3,21.9,18.4,21.9l-2.1,2.4l0.6-1.6c0,0,0-0.1,0.1-0.1l0.1-0.1
			c0.1-0.1,0.1-0.2,0.1-0.3c0-0.4-0.3-0.7-0.7-0.7h-1.1l2.4-4.9h1.8l-1.8,3.1c-0.1,0.1-0.1,0.2-0.1,0.4c0,0.4,0.3,0.7,0.7,0.7h1.2
			L18.4,21.9z M27.7,20.3c-0.9,0.9-2,1.4-3.3,1.4h-4l1-1.2c0.2-0.3,0.2-0.7-0.1-1c-0.1-0.1-0.3-0.2-0.5-0.2h-1.5l1.8-3.1
			c0.2-0.3,0.1-0.8-0.2-1c-0.1-0.1-0.2-0.1-0.4-0.1H17c-0.3,0-0.6,0.2-0.7,0.4l-3,6.1H9.9c-1.1,0-2.1-0.4-2.8-1.2
			C6.4,19.8,6,18.9,6,17.8s0.4-2.1,1.1-2.8s1.7-1.2,2.8-1.2c0.1,0,0.2,0,0.3-0.1l0,0c0.2-0.1,0.3-0.3,0.3-0.5c0.2-1.5,1-2.9,2.1-3.8
			S15.2,8,16.8,8c1.3,0,2.6,0.4,3.6,1.1c0.8,0.6,1.5,1.3,2,2.2c-0.2,0.1-0.3,0.1-0.5,0.2c-0.8,0.4-1.5,0.9-2,1.5
			c-0.2,0.3-0.2,0.7,0.1,1c0.3,0.2,0.7,0.2,1-0.1c0.4-0.5,1-0.9,1.6-1.2s1.2-0.4,1.9-0.4c1.3,0,2.5,0.5,3.3,1.4
			c0.9,0.9,1.4,2,1.4,3.3C29,18.3,28.5,19.5,27.7,20.3z"/>
	</g>
</g>
<g class="st0">
	<g class="st1">
		<g>
			<path class="st2" d="M28.2,17.1c0-1.5-0.6-2.9-1.6-3.8c-1-1-2.3-1.6-3.8-1.6c-1,0-2,0.3-2.8,0.8c-0.6,0.4-1.1,0.9-1.6,1.4
				c-0.1-0.1-0.3-0.2-0.4-0.3c-1.3-0.9-2.8-1.4-4.4-1.4c-1.9,0-3.7,0.7-5,1.9c-1.2,1-2.1,2.5-2.5,4.1c-1.2,0.1-2.3,0.7-3.1,1.5
				c-1,1-1.6,2.3-1.6,3.8S2,26.3,3,27.3s2.3,1.6,3.8,1.6h14.4c1.7,0,3.2-0.7,4.3-1.8c1.1-1.1,1.8-2.6,1.8-4.3c0-0.7-0.1-1.4-0.4-2.1
				c0.4-0.4,0.7-0.9,0.9-1.4C28,18.5,28.2,17.8,28.2,17.1z M24.3,26c-0.8,0.8-2,1.3-3.3,1.3H6.8c-1.1-0.1-2-0.5-2.7-1.3
				C3.4,25.3,3,24.3,3,23.3s0.4-2,1.1-2.7s1.7-1.1,2.7-1.1c0.1,0,0.3,0,0.3-0.1c0.2-0.1,0.3-0.3,0.3-0.5c0.2-1.5,1-2.8,2.1-3.8
				s2.5-1.5,4.1-1.5c1.3,0,2.5,0.4,3.5,1.1c0.8,0.5,1.5,1.3,1.9,2.2c-0.2,0.1-0.3,0.1-0.5,0.2c-0.8,0.3-1.5,0.9-2.1,1.5
				c-0.3,0.3-0.2,0.8,0.1,1c0.3,0.3,0.8,0.2,1-0.1c0.4-0.5,1-0.9,1.5-1.1c0.6-0.3,1.2-0.4,1.9-0.4c1.3,0,2.4,0.5,3.3,1.3
				c0.8,0.8,1.3,2,1.3,3.3S25.2,25.2,24.3,26z M26.4,18.6c-0.1,0.2-0.2,0.4-0.3,0.6c-0.2-0.3-0.4-0.5-0.7-0.8
				c-1.1-1.1-2.6-1.8-4.3-1.8c-0.2,0-0.4,0-0.5,0c-0.3-0.7-0.7-1.2-1.1-1.8c0.3-0.5,0.7-0.9,1.2-1.2c0.6-0.4,1.3-0.6,2.1-0.6
				c1.1,0,2.1,0.4,2.8,1.1c0.7,0.7,1.1,1.7,1.1,2.8C26.7,17.6,26.6,18.1,26.4,18.6z"/>
		</g>
	</g>
	<g class="st1">
		<g>
			<path class="st2" d="M30.4,9.4c-0.3-0.3-0.7-0.3-1,0L27.8,11c-0.3,0.3-0.3,0.7,0,1s0.7,0.3,1,0l1.6-1.6
				C30.7,10.1,30.7,9.7,30.4,9.4z"/>
		</g>
	</g>
	<g class="st1">
		<g>
			<path class="st2" d="M22.8,6.2C22.4,6.2,22,6.6,22,7v2.2c0,0.4,0.3,0.7,0.7,0.7c0.4,0,0.7-0.3,0.7-0.7V7
				C23.5,6.6,23.2,6.2,22.8,6.2z"/>
		</g>
	</g>
	<g class="st1">
		<g>
			<path class="st2" d="M17.7,11l-1.6-1.6c-0.3-0.3-0.7-0.3-1,0s-0.3,0.7,0,1l1.6,1.6c0.3,0.3,0.7,0.3,1,0S18,11.3,17.7,11z"/>
		</g>
	</g>
	<g class="st1">
		<g>
			<path class="st2" d="M32.9,16.3h-2.2c-0.4,0-0.7,0.3-0.7,0.7c0,0.4,0.3,0.7,0.7,0.7h2.2c0.4,0,0.7-0.3,0.7-0.7
				C33.6,16.6,33.3,16.3,32.9,16.3z"/>
		</g>
	</g>
	<g class="st1">
		<g>
			<path class="st2" d="M30.4,23.7l-1.6-1.6c-0.3-0.3-0.7-0.3-1,0s-0.3,0.7,0,1l1.6,1.6c0.3,0.3,0.7,0.3,1,0
				C30.7,24.4,30.7,23.9,30.4,23.7z"/>
		</g>
	</g>
</g>
<g class="st0">
	<g class="st1">
		<path class="st2" d="M26.8,18.8c-0.2,0-0.4,0-0.6,0.1c-0.6,0.5-1.4,1-2.2,1.3c-0.8,0.3-1.6,0.4-2.5,0.4c-2,0-3.9-0.8-5.2-2.1
			s-2.1-3.2-2.1-5.2c0-0.8,0.1-1.7,0.4-2.4c0.3-0.8,0.7-1.5,1.2-2.1C16,8.5,16,8.1,15.7,7.9c-0.2-0.1-0.4-0.2-0.6-0.1
			c-2.1,0.6-4,1.8-5.3,3.5s-2,3.7-2,6c0,2.7,1.1,5.2,2.9,7s4.3,2.9,7,2.9c2.3,0,4.4-0.8,6.1-2.1c1.7-1.3,3-3.3,3.5-5.5
			C27.3,19.3,27.1,18.9,26.8,18.8z M23,24c-1.4,1.1-3.3,1.8-5.3,1.8c-2.4,0-4.5-1-6.1-2.5c-1.5-1.5-2.5-3.7-2.5-6.1
			c0-2,0.6-3.8,1.8-5.2c0.8-1,1.7-1.8,2.9-2.4c-0.1,0.3-0.2,0.5-0.3,0.8c-0.3,0.9-0.5,1.8-0.5,2.8c0,2.4,1,4.5,2.5,6.1
			c1.5,1.7,3.6,2.7,6,2.7c1,0,2-0.2,3-0.5c0.3-0.1,0.6-0.2,0.9-0.4C24.8,22.2,24,23.3,23,24z"/>
	</g>
</g>
<g class="st0">
	<g class="st1">
		<path class="st2" d="M28.7,15.4c-1.1-1.1-2.6-1.8-4.3-1.8c-0.2,0-0.4,0-0.6,0c-0.6-1.3-1.5-2.3-2.6-3.1c-1.3-0.9-2.8-1.4-4.4-1.4
			c-1.9,0-3.6,0.7-5,1.8c-1.2,1-2.1,2.5-2.5,4.1c-1.2,0.1-2.3,0.7-3.2,1.5c-1,1-1.6,2.3-1.6,3.8s0.6,2.8,1.6,3.8
			c1,0.9,2.3,1.5,3.8,1.5h14.4c1.7,0,3.2-0.7,4.3-1.8c1.1-1.1,1.8-2.6,1.8-4.3C30.4,18,29.7,16.5,28.7,15.4z M27.6,23
			c-0.9,0.9-2,1.4-3.3,1.4H9.9c-1.1,0-2.1-0.4-2.8-1.2C6.4,22.4,6,21.5,6,20.4c0-1,0.4-2,1.1-2.7s1.7-1.2,2.8-1.2
			c0.1,0,0.2,0,0.3-0.1l0,0c0.2-0.1,0.3-0.3,0.3-0.5c0.2-1.5,1-2.9,2.1-3.8s2.5-1.5,4.1-1.5c1.3,0,2.6,0.4,3.6,1.1
			c0.8,0.6,1.5,1.3,2,2.2C22.1,14,22,14,21.8,14.1c-0.8,0.4-1.5,0.9-2,1.5c-0.2,0.3-0.2,0.7,0.1,1c0.3,0.2,0.7,0.2,1-0.1
			c0.4-0.5,1-0.9,1.6-1.2s1.2-0.4,1.9-0.4c1.3,0,2.5,0.5,3.3,1.4c0.9,0.9,1.4,2,1.4,3.3C28.9,21,28.4,22.1,27.6,23z"/>
	</g>
</g>
<path class="st3" d="M33.4,15.7c-0.1-0.1-0.2-0.2-0.4-0.3c-0.2,0-0.4,0-0.5,0.1c-0.5,0.4-1,0.7-1.6,1c-0.6,0.2-1.2,0.3-1.9,0.3
	c-1.4,0-2.8-0.6-3.8-1.6s-1.6-2.4-1.6-3.8c0-0.6,0.1-1.2,0.3-1.8C24.1,9,24.4,8.5,24.8,8C25,7.7,25,7.4,24.7,7.1
	C24.5,7,24.3,6.9,24.2,7c-1.6,0.4-3,1.4-4.1,2.7c-0.7,1-1.2,2.1-1.4,3.3c-0.2-0.1-0.3-0.3-0.5-0.4c-1.3-0.9-2.8-1.4-4.4-1.4
	c-1.9,0-3.6,0.7-5,1.8c-1.2,1-2.1,2.5-2.5,4.1C5,17.4,3.9,18,3.1,18.8c-1,1-1.6,2.3-1.6,3.8s0.6,2.8,1.6,3.8c1,0.9,2.3,1.5,3.8,1.5
	h14.4c1.7,0,3.2-0.7,4.3-1.8c1.1-1.1,1.8-2.6,1.8-4.3c1.2-0.2,2.4-0.7,3.4-1.5c1.3-1,2.3-2.5,2.7-4.2C33.5,16,33.5,15.9,33.4,15.7z
	 M24.5,25.1c-0.9,0.9-2,1.4-3.3,1.4H6.9c-1.1,0-2.1-0.4-2.8-1.2C3.4,24.6,3,23.6,3,22.5c0-1,0.4-2,1.1-2.7s1.7-1.2,2.8-1.2
	c0.1,0,0.2,0,0.3-0.1l0,0c0.2-0.1,0.3-0.3,0.3-0.5c0.2-1.5,1-2.9,2.1-3.8c1.1-0.9,2.5-1.5,4.1-1.5c1.3,0,2.6,0.4,3.6,1.1
	c0.8,0.6,1.5,1.3,2,2.2c-0.2,0.1-0.3,0.1-0.5,0.2c-0.8,0.4-1.5,0.9-2,1.5c-0.2,0.3-0.2,0.7,0.1,1c0.3,0.2,0.7,0.2,1-0.1
	c0.4-0.5,1-0.9,1.6-1.2c0.6-0.3,1.2-0.4,1.9-0.4c1.3,0,2.5,0.5,3.3,1.4c0.9,0.9,1.4,2,1.4,3.3C25.9,23.1,25.3,24.3,24.5,25.1z
	 M30,19.4L30,19.4c-0.8,0.6-1.8,1-2.8,1.2c-0.2-1.2-0.8-2.3-1.6-3.1c-1.1-1.1-2.6-1.8-4.3-1.8c-0.2,0-0.4,0-0.6,0
	c-0.3-0.6-0.6-1.1-1-1.6c0-1.3,0.5-2.6,1.3-3.7c0.5-0.7,1.1-1.2,1.8-1.6c0,0.1-0.1,0.2-0.1,0.3c-0.2,0.7-0.4,1.4-0.4,2.2
	c0,1.7,0.7,3.4,1.9,4.7c1.2,1.2,2.9,1.9,4.7,1.9c0.8,0,1.6-0.1,2.3-0.4c0.1,0,0.3-0.1,0.4-0.1C31.2,18.3,30.7,18.9,30,19.4z"/>
<path class="st3" d="M32.2,12.9L32.2,12.9c-1-1-2.3-1.5-3.7-1.4c-0.4-0.9-1.1-1.7-2-2.3c-1-0.7-2.2-1.1-3.5-1.1
	c-1.5,0-2.8,0.5-4,1.5c-0.6,0.5-1.1,1.2-1.5,1.9c-1.2-0.7-2.6-1.2-4-1.2c-1.9,0-3.6,0.7-5,1.8c-1.2,1-2.1,2.5-2.5,4.1
	c-1.1,0.2-2.2,0.8-3,1.6c-1,1-1.6,2.3-1.6,3.8C1.4,23,2,24.4,3,25.3s2.3,1.5,3.8,1.5h14.4c1.7,0,3.2-0.7,4.3-1.8c1-1,1.7-2.4,1.7-4
	h1.5c1.3,0,2.5-0.5,3.4-1.4s1.4-2.1,1.4-3.4C33.6,15,33.1,13.8,32.2,12.9z M24.4,24.1c-0.9,0.9-2,1.4-3.3,1.4H6.7
	c-1.1,0-2.1-0.4-2.8-1.2c-0.7-0.7-1.2-1.7-1.2-2.8c0-1,0.4-2,1.1-2.7s1.7-1.2,2.8-1.2c0.1,0,0.2,0,0.3-0.1l0,0
	c0.2-0.1,0.3-0.3,0.3-0.5c0.2-1.5,1-2.9,2.1-3.8c1.1-0.9,2.5-1.5,4.1-1.5c1.3,0,2.6,0.4,3.6,1.1c0.8,0.6,1.5,1.3,2,2.2
	c-0.2,0.1-0.3,0.1-0.5,0.2c-0.8,0.4-1.5,0.9-2,1.5c-0.2,0.3-0.2,0.7,0.1,1c0.3,0.2,0.7,0.2,1-0.1c0.4-0.5,1-0.9,1.6-1.2
	c0.6-0.3,1.2-0.4,1.9-0.4c1.3,0,2.5,0.5,3.3,1.4c0.9,0.9,1.4,2,1.4,3.3C25.7,22.1,25.2,23.2,24.4,24.1z M31,18.6
	c-0.6,0.6-1.4,0.9-2.3,0.9h-1.6c-0.3-1.2-0.8-2.2-1.6-3c-1.1-1.1-2.6-1.8-4.3-1.8c-0.2,0-0.4,0-0.6,0c-0.4-0.9-1-1.7-1.7-2.4
	c0.3-0.6,0.7-1.2,1.2-1.7C20.9,9.9,22,9.5,23,9.5c0.9,0,1.8,0.3,2.6,0.8c0.5,0.4,1,0.8,1.3,1.4h-0.1c-0.6,0.3-1.2,0.7-1.6,1.2
	c-0.3,0.3-0.2,0.8,0.1,1.1c0.3,0.3,0.8,0.2,1.1-0.1c0.3-0.3,0.7-0.6,1.1-0.8s0.9-0.3,1.3-0.3c0.9,0,1.7,0.3,2.3,0.9S32,15.1,32,16
	C32,17.1,31.6,18,31,18.6z"/>
<g class="st0">
	<g class="st1">
		<g>
			<g>
				<path class="st2" d="M18.6,28v-1.1c0-0.4-0.3-0.7-0.7-0.7c-0.4,0-0.7,0.3-0.7,0.7V28c0,0.4,0.3,0.7,0.7,0.7
					C18.3,28.7,18.7,28.4,18.6,28z"/>
			</g>
		</g>
		<g>
			<g>
				<path class="st2" d="M11.8,22.1c-0.4,0-0.7,0.3-0.7,0.7V25c0,0.4,0.3,0.7,0.7,0.7s0.7-0.3,0.7-0.7v-2.1
					C12.6,22.4,12.2,22.1,11.8,22.1z"/>
			</g>
		</g>
		<g>
			<g>
				<path class="st2" d="M11.8,26.2c-0.4,0-0.7,0.3-0.7,0.7V28c0,0.4,0.3,0.7,0.7,0.7s0.7-0.3,0.7-0.7v-1
					C12.6,26.5,12.2,26.2,11.8,26.2z"/>
			</g>
		</g>
		<g>
			<g>
				<path class="st2" d="M17.9,22.1c-0.4,0-0.7,0.3-0.7,0.7V25c0,0.4,0.3,0.7,0.7,0.7c0.4,0,0.7-0.3,0.7-0.7v-2.1
					C18.6,22.4,18.3,22.1,17.9,22.1z"/>
			</g>
		</g>
		<g>
			<g>
				<path class="st2" d="M23.9,28v-1.1c0-0.4-0.3-0.7-0.7-0.7c-0.4,0-0.7,0.3-0.7,0.7V28c0,0.4,0.3,0.7,0.7,0.7S24,28.4,23.9,28z"/>
			</g>
		</g>
		<g>
			<g>
				<path class="st2" d="M23.2,22.1c-0.4,0-0.7,0.3-0.7,0.7V25c0,0.4,0.3,0.7,0.7,0.7s0.7-0.3,0.7-0.7v-2.1
					C23.9,22.4,23.6,22.1,23.2,22.1z"/>
			</g>
		</g>
	</g>
	<path class="st4" d="M28.7,11.1c-1.1-1.1-2.6-1.8-4.3-1.8c-0.2,0-0.4,0-0.5,0C23.2,8,22.3,7,21.2,6.2c-1.3-0.9-2.8-1.4-4.4-1.4
		c-1.9,0-3.7,0.7-5,1.9c-1.2,1-2.1,2.5-2.5,4.1c-1.2,0.1-2.3,0.7-3.2,1.5c-1,1-1.6,2.3-1.6,3.8s0.6,2.8,1.6,3.8s2.3,1.6,3.8,1.6
		h14.4c1.7,0,3.2-0.7,4.3-1.8c1.1-1.1,1.8-2.6,1.8-4.3C30.4,13.7,29.7,12.2,28.7,11.1z M27.6,18.6c-0.8,0.8-2,1.3-3.3,1.3h-3.9h-7
		h-1.7H9.9c-1.1,0-2-0.4-2.7-1.1s-1.1-1.7-1.1-2.7c0-1.1,0.4-2,1.1-2.7s1.7-1.1,2.7-1.1c0.1,0,0.3,0,0.3-0.1
		c0.2-0.1,0.3-0.3,0.3-0.5c0.2-1.5,1-2.8,2.1-3.8s2.5-1.5,4.1-1.5c1.3,0,2.5,0.4,3.5,1.1c0.8,0.6,1.5,1.3,1.9,2.2
		c-0.2,0.1-0.3,0.1-0.5,0.2c-0.7,0.3-1.4,0.8-2,1.5c-0.3,0.3-0.2,0.8,0.1,1c0.3,0.3,0.8,0.2,1-0.1c0.4-0.5,1-0.9,1.6-1.1
		c0.6-0.3,1.2-0.4,1.9-0.4c1.3,0,2.4,0.5,3.3,1.3c0.8,0.8,1.3,2,1.3,3.3S28.5,17.8,27.6,18.6z"/>
	<g class="st1">
		<g>
			<g>
				<path class="st2" d="M9.2,22.1c-0.4,0-0.7,0.3-0.7,0.7v6.6c0,0.4,0.3,0.7,0.7,0.7s0.7-0.3,0.7-0.7v-6.6
					C9.9,22.4,9.6,22.1,9.2,22.1z"/>
			</g>
		</g>
		<g>
			<g>
				<path class="st2" d="M20.5,22.1c-0.4,0-0.7,0.3-0.7,0.7v6.6c0,0.4,0.3,0.7,0.7,0.7c0.4,0,0.7-0.3,0.7-0.7v-6.6
					C21.3,22.4,21,22.1,20.5,22.1z"/>
			</g>
		</g>
		<g>
			<g>
				<path class="st2" d="M25.8,22.1c-0.4,0-0.7,0.3-0.7,0.7v6.6c0,0.4,0.3,0.7,0.7,0.7c0.4,0,0.7-0.3,0.7-0.7v-6.6
					C26.6,22.4,26.3,22.1,25.8,22.1z"/>
			</g>
		</g>
		<g>
			<g>
				<g>
					<path class="st2" d="M15,22.1c-0.4,0-0.7,0.3-0.7,0.7v1.9c0,0.4,0.3,0.7,0.7,0.7s0.7-0.3,0.7-0.7v-1.9
						C15.7,22.4,15.4,22.1,15,22.1z"/>
				</g>
			</g>
			<g>
				<g>
					<path class="st2" d="M15,26.1c-0.4,0-0.7,0.3-0.7,0.7v2.6c0,0.4,0.3,0.7,0.7,0.7s0.7-0.3,0.7-0.7v-2.6
						C15.7,26.4,15.4,26.1,15,26.1z"/>
				</g>
			</g>
		</g>
	</g>
</g>
<g class="st0">
	<g class="st1">
		<g>
			<g>
				<path class="st2" d="M28.2,12.7c0-1.5-0.6-2.9-1.6-3.8c-1-1-2.3-1.6-3.8-1.6c-1,0-2,0.3-2.8,0.8c-0.6,0.4-1.1,0.9-1.6,1.4
					c-0.1-0.1-0.3-0.2-0.4-0.3c-1.3-0.9-2.8-1.4-4.4-1.4c-1.9,0-3.7,0.7-5,1.9c-1.2,1-2.1,2.5-2.5,4.1c-1.2,0.1-2.3,0.7-3.1,1.5
					c-1,1-1.6,2.3-1.6,3.8S2,21.9,3,22.9s2.3,1.6,3.8,1.6h14.4c1.7,0,3.2-0.7,4.3-1.8c1.1-1.1,1.8-2.6,1.8-4.3
					c0-0.7-0.1-1.4-0.4-2.1c0.4-0.4,0.7-0.9,0.9-1.4C28,14.1,28.2,13.4,28.2,12.7z M24.3,21.6c-0.8,0.8-2,1.3-3.3,1.3H6.8
					c-1.1-0.1-2-0.5-2.7-1.3C3.4,21,2.9,20.1,2.9,19s0.4-2,1.1-2.7c0.7-0.7,1.7-1.1,2.7-1.1c0.1,0,0.3,0,0.3-0.1
					c0.2-0.1,0.3-0.3,0.3-0.5c0.2-1.5,1-2.8,2.1-3.8c1.1-0.9,2.5-1.5,4.1-1.5c1.3,0,2.5,0.4,3.5,1.1c0.8,0.5,1.5,1.3,1.9,2.2
					c-0.2,0.1-0.3,0.1-0.5,0.2c-0.8,0.3-1.5,0.9-2.1,1.5c-0.3,0.3-0.2,0.8,0.1,1c0.3,0.3,0.8,0.2,1-0.1c0.4-0.5,1-0.9,1.5-1.1
					c0.6-0.3,1.2-0.4,1.9-0.4c1.3,0,2.4,0.5,3.3,1.3c0.8,0.8,1.3,2,1.3,3.3C25.7,19.7,25.2,20.8,24.3,21.6z M26.4,14.2
					c-0.1,0.2-0.2,0.4-0.3,0.6c-0.2-0.3-0.4-0.5-0.7-0.8c-1.1-1.1-2.6-1.8-4.3-1.8c-0.2,0-0.4,0-0.5,0c-0.3-0.7-0.7-1.2-1.1-1.8
					c0.3-0.5,0.7-0.9,1.2-1.2c0.6-0.4,1.3-0.6,2.1-0.6c1.1,0,2.1,0.4,2.8,1.1c0.7,0.7,1.1,1.7,1.1,2.8
					C26.7,13.2,26.6,13.7,26.4,14.2z"/>
			</g>
		</g>
		<g>
			<g>
				<path class="st2" d="M30.4,5c-0.3-0.3-0.7-0.3-1,0l-1.6,1.6c-0.3,0.3-0.3,0.7,0,1s0.7,0.3,1,0L30.4,6C30.7,5.7,30.7,5.3,30.4,5z
					"/>
			</g>
		</g>
		<g>
			<g>
				<path class="st2" d="M22.8,1.9c-0.4,0-0.7,0.3-0.7,0.7v2.2c0,0.4,0.3,0.7,0.7,0.7c0.4,0,0.7-0.3,0.7-0.7V2.6
					C23.5,2.2,23.2,1.9,22.8,1.9z"/>
			</g>
		</g>
		<g>
			<g>
				<path class="st2" d="M17.7,6.6L16.2,5c-0.3-0.3-0.7-0.3-1,0s-0.3,0.7,0,1l1.6,1.6c0.3,0.3,0.7,0.3,1,0C18,7.3,18,6.9,17.7,6.6z"
					/>
			</g>
		</g>
		<g>
			<g>
				<path class="st2" d="M32.9,11.9h-2.2c-0.4,0-0.7,0.3-0.7,0.7s0.3,0.7,0.7,0.7h2.2c0.4,0,0.7-0.3,0.7-0.7
					C33.6,12.2,33.3,11.9,32.9,11.9z"/>
			</g>
		</g>
		<g>
			<g>
				<path class="st2" d="M30.4,19.3l-1.6-1.6c-0.3-0.3-0.7-0.3-1,0s-0.3,0.7,0,1l1.6,1.6c0.3,0.3,0.7,0.3,1,0
					C30.7,20,30.7,19.6,30.4,19.3z"/>
			</g>
		</g>
	</g>
	<g class="st1">
		<g>
			<g>
				<path class="st2" d="M15.4,31v-1.1c0-0.4-0.3-0.7-0.7-0.7S14,29.5,14,29.9V31c0,0.4,0.3,0.7,0.7,0.7
					C15.1,31.7,15.5,31.4,15.4,31z"/>
			</g>
		</g>
		<g>
			<g>
				<path class="st2" d="M8.6,25.1c-0.4,0-0.7,0.3-0.7,0.7V28c0,0.4,0.3,0.7,0.7,0.7s0.7-0.3,0.7-0.7v-2.1C9.3,25.4,9,25.1,8.6,25.1
					z"/>
			</g>
		</g>
		<g>
			<g>
				<path class="st2" d="M8.6,29.2c-0.4,0-0.7,0.3-0.7,0.7V31c0,0.4,0.3,0.7,0.7,0.7s0.7-0.3,0.7-0.7v-1.1C9.3,29.5,9,29.2,8.6,29.2
					z"/>
			</g>
		</g>
		<g>
			<g>
				<path class="st2" d="M14.7,25.1c-0.4,0-0.7,0.3-0.7,0.7V28c0,0.4,0.3,0.7,0.7,0.7s0.7-0.3,0.7-0.7v-2.1
					C15.4,25.4,15.1,25.1,14.7,25.1z"/>
			</g>
		</g>
		<g>
			<g>
				<path class="st2" d="M20.7,31v-1.1c0-0.4-0.3-0.7-0.7-0.7c-0.4,0-0.7,0.3-0.7,0.7V31c0,0.4,0.3,0.7,0.7,0.7
					C20.4,31.7,20.8,31.4,20.7,31z"/>
			</g>
		</g>
		<g>
			<g>
				<path class="st2" d="M20,25.1c-0.4,0-0.7,0.3-0.7,0.7V28c0,0.4,0.3,0.7,0.7,0.7c0.4,0,0.7-0.3,0.7-0.7v-2.1
					C20.7,25.4,20.4,25.1,20,25.1z"/>
			</g>
		</g>
	</g>
	<g class="st1">
		<g>
			<g>
				<path class="st2" d="M6,25.1c-0.4,0-0.7,0.3-0.7,0.7v6.6c0,0.4,0.3,0.7,0.7,0.7s0.7-0.3,0.7-0.7v-6.6C6.7,25.4,6.4,25.1,6,25.1z
					"/>
			</g>
		</g>
		<g>
			<g>
				<path class="st2" d="M17.3,25.1c-0.4,0-0.7,0.3-0.7,0.7v6.6c0,0.4,0.3,0.7,0.7,0.7c0.4,0,0.7-0.3,0.7-0.7v-6.6
					C18.1,25.4,17.8,25.1,17.3,25.1z"/>
			</g>
		</g>
		<g>
			<g>
				<path class="st2" d="M22.6,25.1c-0.4,0-0.7,0.3-0.7,0.7v6.6c0,0.4,0.3,0.7,0.7,0.7c0.4,0,0.7-0.3,0.7-0.7v-6.6
					C23.4,25.4,23.1,25.1,22.6,25.1z"/>
			</g>
		</g>
		<g>
			<g>
				<g>
					<path class="st2" d="M11.8,25.1c-0.4,0-0.7,0.3-0.7,0.7v1.9c0,0.4,0.3,0.7,0.7,0.7s0.7-0.3,0.7-0.7v-1.9
						C12.5,25.4,12.2,25.1,11.8,25.1z"/>
				</g>
			</g>
			<g>
				<g>
					<path class="st2" d="M11.8,29.1c-0.4,0-0.7,0.3-0.7,0.7v2.6c0,0.4,0.3,0.7,0.7,0.7s0.7-0.3,0.7-0.7v-2.6
						C12.5,29.4,12.2,29.1,11.8,29.1z"/>
				</g>
			</g>
		</g>
	</g>
</g>
<g class="st0">
	<path class="st4" d="M33.4,11.3C33.3,11.1,33.2,11,33,11s-0.4,0-0.5,0.1c-0.5,0.4-1,0.7-1.6,1c-0.6,0.2-1.2,0.3-1.9,0.3
		c-1.4,0-2.8-0.6-3.8-1.6S23.6,8.4,23.6,7c0-0.6,0.1-1.2,0.3-1.8c0.2-0.6,0.5-1.1,0.9-1.6C25,3.4,24.9,3,24.7,2.8
		c-0.2-0.1-0.4-0.2-0.5-0.1c-1.6,0.4-3,1.4-4.1,2.7c-0.7,1-1.2,2.1-1.4,3.3c-0.2-0.1-0.3-0.3-0.5-0.4c-1.3-0.9-2.8-1.4-4.4-1.4
		c-1.9,0-3.6,0.7-5,1.8c-1.2,1-2.1,2.5-2.5,4.1C5,13,3.9,13.5,3.1,14.4c-1,1-1.6,2.3-1.6,3.8S2.1,21,3.1,22c1,0.9,2.3,1.5,3.8,1.5
		h14.4c1.7,0,3.2-0.7,4.3-1.8c1.1-1.1,1.8-2.6,1.8-4.3c1.2-0.2,2.4-0.7,3.4-1.5c1.3-1,2.3-2.5,2.7-4.2
		C33.5,11.6,33.5,11.4,33.4,11.3z M24.5,20.7c-0.9,0.9-2,1.4-3.3,1.4H6.9c-1.1,0-2.1-0.4-2.8-1.2C3.4,20.1,3,19.2,3,18.1
		c0-1,0.4-2,1.1-2.7s1.7-1.2,2.8-1.2c0.1,0,0.2,0,0.3-0.1l0,0c0.2-0.1,0.3-0.3,0.3-0.5c0.2-1.5,1-2.9,2.1-3.8
		c1.1-0.9,2.5-1.5,4.1-1.5c1.3,0,2.6,0.4,3.6,1.1c0.8,0.6,1.5,1.3,2,2.2c-0.2,0.1-0.3,0.1-0.5,0.2c-0.8,0.4-1.5,0.9-2,1.5
		c-0.2,0.3-0.2,0.7,0.1,1c0.3,0.2,0.7,0.2,1-0.1c0.4-0.5,1-0.9,1.6-1.2s1.2-0.4,1.9-0.4c1.3,0,2.5,0.5,3.3,1.4
		c0.9,0.9,1.4,2,1.4,3.3C25.9,18.7,25.3,19.8,24.5,20.7z M30,15L30,15c-0.8,0.6-1.8,1-2.8,1.2c-0.2-1.2-0.8-2.3-1.6-3.1
		c-1.1-1.1-2.6-1.8-4.3-1.8c-0.2,0-0.4,0-0.6,0c-0.3-0.6-0.6-1.1-1-1.6c0-1.3,0.5-2.6,1.3-3.7c0.5-0.7,1.1-1.2,1.8-1.6
		c0,0.1-0.1,0.2-0.1,0.3c-0.2,0.7-0.4,1.4-0.4,2.2c0,1.7,0.7,3.4,1.9,4.7c1.2,1.2,2.9,1.9,4.7,1.9c0.8,0,1.6-0.1,2.3-0.4
		c0.1,0,0.3-0.1,0.4-0.1C31.2,13.8,30.7,14.5,30,15z"/>
	<g class="st1">
		<g>
			<g>
				<path class="st2" d="M16,30.2v-1.1c0-0.4-0.3-0.7-0.7-0.7s-0.7,0.3-0.7,0.7v1.1c0,0.4,0.3,0.7,0.7,0.7
					C15.7,30.9,16,30.6,16,30.2z"/>
			</g>
		</g>
		<g>
			<g>
				<path class="st2" d="M9.2,24.3c-0.4,0-0.7,0.3-0.7,0.7v2.1c0,0.4,0.3,0.7,0.7,0.7s0.7-0.3,0.7-0.7V25
					C9.9,24.6,9.6,24.3,9.2,24.3z"/>
			</g>
		</g>
		<g>
			<g>
				<path class="st2" d="M9.2,28.4c-0.4,0-0.7,0.3-0.7,0.7v1.1c0,0.4,0.3,0.7,0.7,0.7s0.7-0.3,0.7-0.7v-1.1
					C9.9,28.7,9.6,28.4,9.2,28.4z"/>
			</g>
		</g>
		<g>
			<g>
				<path class="st2" d="M15.2,24.3c-0.4,0-0.7,0.3-0.7,0.7v2.1c0,0.4,0.3,0.7,0.7,0.7s0.7-0.3,0.7-0.7V25
					C16,24.6,15.6,24.3,15.2,24.3z"/>
			</g>
		</g>
		<g>
			<g>
				<path class="st2" d="M21.3,30.2v-1.1c0-0.4-0.3-0.7-0.7-0.7c-0.4,0-0.7,0.3-0.7,0.7v1.1c0,0.4,0.3,0.7,0.7,0.7
					C21,30.9,21.3,30.6,21.3,30.2z"/>
			</g>
		</g>
		<g>
			<g>
				<path class="st2" d="M20.5,24.3c-0.4,0-0.7,0.3-0.7,0.7v2.1c0,0.4,0.3,0.7,0.7,0.7s0.7-0.3,0.7-0.7V25
					C21.3,24.6,20.9,24.3,20.5,24.3z"/>
			</g>
		</g>
	</g>
	<g class="st1">
		<g>
			<g>
				<path class="st2" d="M6.5,24.3c-0.4,0-0.7,0.3-0.7,0.7v6.6c0,0.4,0.3,0.7,0.7,0.7c0.4,0,0.7-0.3,0.7-0.7V25
					C7.3,24.6,6.9,24.3,6.5,24.3z"/>
			</g>
		</g>
		<g>
			<g>
				<path class="st2" d="M17.9,24.3c-0.4,0-0.7,0.3-0.7,0.7v6.6c0,0.4,0.3,0.7,0.7,0.7c0.4,0,0.7-0.3,0.7-0.7V25
					C18.6,24.6,18.3,24.3,17.9,24.3z"/>
			</g>
		</g>
		<g>
			<g>
				<path class="st2" d="M23.2,24.3c-0.4,0-0.7,0.3-0.7,0.7v6.6c0,0.4,0.3,0.7,0.7,0.7s0.7-0.3,0.7-0.7V25
					C23.9,24.6,23.6,24.3,23.2,24.3z"/>
			</g>
		</g>
		<g>
			<g>
				<g>
					<path class="st2" d="M12.3,24.3c-0.4,0-0.7,0.3-0.7,0.7v2c0,0.4,0.3,0.7,0.7,0.7S13,27.4,13,27v-2
						C13.1,24.6,12.7,24.3,12.3,24.3z"/>
				</g>
			</g>
			<g>
				<g>
					<path class="st2" d="M12.3,28.3c-0.4,0-0.7,0.3-0.7,0.7v2.6c0,0.4,0.3,0.7,0.7,0.7S13,32,13,31.6V29
						C13.1,28.6,12.7,28.3,12.3,28.3z"/>
				</g>
			</g>
		</g>
	</g>
</g>
<path class="st5" d="M27,20.6l-2.9,0.5l-5.3-3.7l5.3-3.7l2.9,0.5c0.4,0.1,0.8-0.2,0.9-0.6c0.1-0.4-0.2-0.8-0.6-0.9l-1.4-0.3l1.1-0.8
	c0.3-0.2,0.4-0.7,0.2-1c-0.2-0.3-0.7-0.4-1-0.2L25,11.3l0.3-1.4c0.1-0.4-0.2-0.8-0.6-0.9s-0.8,0.2-0.9,0.6l-0.5,2.9l-4.9,3.4v-5.8
	l2-2.1c0.3-0.3,0.3-0.8,0-1.1c-0.3-0.3-0.8-0.3-1.1,0l-1,1V6.4c0-0.4-0.3-0.7-0.7-0.7c-0.4,0-0.7,0.3-0.7,0.7V8l-1-1
	c-0.3-0.3-0.8-0.3-1.1,0s-0.3,0.8,0,1.1l2.1,2.1v5.9l-5.2-3.6l-0.5-2.9c-0.1-0.4-0.5-0.7-0.9-0.6S9.7,9.5,9.7,9.9l0.3,1.4l-1.1-0.8
	c-0.3-0.2-0.8-0.1-1,0.2s-0.1,0.8,0.2,1l1.1,0.8l-1.4,0.3c-0.4,0.1-0.7,0.5-0.6,0.9c0,0.3,0.4,0.6,0.8,0.5l2.9-0.5l5.3,3.7l-5.3,3.7
	L8,20.6c-0.4-0.1-0.8,0.2-0.9,0.6s0.2,0.7,0.6,0.8l1.4,0.3l-1.3,0.9c-0.3,0.2-0.4,0.7-0.2,1c0.2,0.3,0.7,0.4,1,0.2l1.3-0.9l-0.3,1.4
	c-0.1,0.4,0.2,0.8,0.6,0.9c0.4,0.1,0.8-0.2,0.9-0.6l0.5-2.9l5.2-3.6v6.5l-2.1,2.1c-0.3,0.3-0.3,0.8,0,1.1c0.3,0.3,0.8,0.3,1.1,0l1-1
	v1.3c0,0.4,0.3,0.7,0.7,0.7c0.4,0,0.7-0.3,0.7-0.7v-1.3l1,1c0.3,0.3,0.8,0.3,1.1,0s0.3-0.8,0-1.1l-2.1-2.1v-6.3l4.9,3.4l0.5,2.9
	c0.1,0.4,0.5,0.7,0.9,0.6s0.7-0.5,0.6-0.9L25,23.5l1.3,0.9c0.3,0.2,0.8,0.1,1-0.2c0.2-0.3,0.1-0.8-0.2-1l-1.3-0.9l1.4-0.3
	c0.4-0.1,0.7-0.5,0.6-0.9S27.4,20.5,27,20.6z"/>
<g class="st0">
	<path class="st4" d="M4.3,12.5c0-0.4,0.3-0.7,0.7-0.7h22.3c0.4,0,0.7,0.3,0.7,0.7s-0.3,0.7-0.7,0.7H5C4.6,13.2,4.3,12.9,4.3,12.5z"
		/>
	<path class="st4" d="M7,15c0-0.4,0.3-0.7,0.7-0.7H30c0.4,0,0.7,0.3,0.7,0.7s-0.3,0.7-0.7,0.7H7.7C7.3,15.7,7,15.4,7,15z"/>
	<path class="st4" d="M5,20c0-0.4,0.3-0.7,0.7-0.7H28c0.4,0,0.7,0.3,0.7,0.7s-0.3,0.7-0.7,0.7H5.7C5.3,20.7,5,20.4,5,20z"/>
	<g class="st1">
		<path class="st2" d="M12.3,17.5c0-0.4,0.3-0.7,0.7-0.7h14.3c0.4,0,0.7,0.3,0.7,0.7s-0.3,0.7-0.7,0.7H13
			C12.6,18.2,12.3,17.9,12.3,17.5z"/>
		<path class="st2" d="M4.3,17.5c0-0.4,0.3-0.7,0.7-0.7h5.3c0.4,0,0.7,0.3,0.7,0.7s-0.3,0.7-0.7,0.7H5C4.6,18.2,4.3,17.9,4.3,17.5z"
			/>
	</g>
	<g class="st1">
		<path class="st2" d="M12.3,22.5c0-0.4,0.3-0.7,0.7-0.7h16.3c0.4,0,0.7,0.3,0.7,0.7s-0.3,0.7-0.7,0.7H13
			C12.6,23.2,12.3,22.9,12.3,22.5z"/>
		<path class="st2" d="M6.3,22.5c0-0.4,0.3-0.7,0.7-0.7h3.3c0.4,0,0.7,0.3,0.7,0.7s-0.3,0.7-0.7,0.7H7C6.6,23.2,6.3,22.9,6.3,22.5z"
			/>
	</g>
</g>
</svg>
